%TF.GenerationSoftware,KiCad,Pcbnew,10.0.4*%
%TF.CreationDate,2026-07-21T19:50:04-06:00*%
%TF.ProjectId,megaruptor_shield,6d656761-7275-4707-946f-725f73686965,rev?*%
%TF.SameCoordinates,Original*%
%TF.FileFunction,Copper,L1,Top*%
%TF.FilePolarity,Positive*%
%FSLAX46Y46*%
G04 Gerber Fmt 4.6, Leading zero omitted, Abs format (unit mm)*
G04 Created by KiCad (PCBNEW 10.0.4) date 2026-07-21 19:50:04*
%MOMM*%
%LPD*%
G01*
G04 APERTURE LIST*
G04 Aperture macros list*
%AMRoundRect*
0 Rectangle with rounded corners*
0 $1 Rounding radius*
0 $2 $3 $4 $5 $6 $7 $8 $9 X,Y pos of 4 corners*
0 Add a 4 corners polygon primitive as box body*
4,1,4,$2,$3,$4,$5,$6,$7,$8,$9,$2,$3,0*
0 Add four circle primitives for the rounded corners*
1,1,$1+$1,$2,$3*
1,1,$1+$1,$4,$5*
1,1,$1+$1,$6,$7*
1,1,$1+$1,$8,$9*
0 Add four rect primitives between the rounded corners*
20,1,$1+$1,$2,$3,$4,$5,0*
20,1,$1+$1,$4,$5,$6,$7,0*
20,1,$1+$1,$6,$7,$8,$9,0*
20,1,$1+$1,$8,$9,$2,$3,0*%
G04 Aperture macros list end*
%TA.AperFunction,ComponentPad*%
%ADD10C,2.600000*%
%TD*%
%TA.AperFunction,ComponentPad*%
%ADD11RoundRect,0.250000X1.050000X-1.050000X1.050000X1.050000X-1.050000X1.050000X-1.050000X-1.050000X0*%
%TD*%
%TA.AperFunction,ComponentPad*%
%ADD12C,1.200000*%
%TD*%
%TA.AperFunction,ComponentPad*%
%ADD13R,1.200000X1.200000*%
%TD*%
%TA.AperFunction,ComponentPad*%
%ADD14RoundRect,0.250000X-1.050000X1.050000X-1.050000X-1.050000X1.050000X-1.050000X1.050000X1.050000X0*%
%TD*%
%TA.AperFunction,ComponentPad*%
%ADD15R,1.700000X1.700000*%
%TD*%
%TA.AperFunction,ComponentPad*%
%ADD16C,1.700000*%
%TD*%
%TA.AperFunction,ComponentPad*%
%ADD17R,3.500000X3.500000*%
%TD*%
%TA.AperFunction,ComponentPad*%
%ADD18RoundRect,0.750000X-0.750000X-1.000000X0.750000X-1.000000X0.750000X1.000000X-0.750000X1.000000X0*%
%TD*%
%TA.AperFunction,ComponentPad*%
%ADD19RoundRect,0.875000X-0.875000X-0.875000X0.875000X-0.875000X0.875000X0.875000X-0.875000X0.875000X0*%
%TD*%
%TA.AperFunction,Conductor*%
%ADD20C,0.200000*%
%TD*%
G04 APERTURE END LIST*
D10*
%TO.P,M1,4*%
%TO.N,Net-(A2-2B)*%
X154000000Y-98760000D03*
%TO.P,M1,3*%
%TO.N,Net-(A2-2A)*%
X154000000Y-103840000D03*
%TO.P,M1,2,-_2*%
%TO.N,Net-(A2-1B)*%
X154000000Y-108920000D03*
D11*
%TO.P,M1,1*%
%TO.N,Net-(A2-1A)*%
X154000000Y-114000000D03*
%TD*%
D12*
%TO.P,SW2,*%
%TO.N,*%
X153000000Y-83080000D03*
X153000000Y-78000000D03*
D13*
%TO.P,SW2,1,A_1*%
%TO.N,Net-(A2-VMOT)*%
X147920000Y-83080000D03*
D12*
%TO.P,SW2,2,B_2*%
%TO.N,Net-(SW2-B)*%
X147920000Y-80540000D03*
%TO.P,SW2,3,C_3*%
%TO.N,unconnected-(SW2-C-Pad3)*%
X147920000Y-78000000D03*
%TD*%
D14*
%TO.P,SW1,1,1_1*%
%TO.N,+12V*%
X118000000Y-77500000D03*
D10*
%TO.P,SW1,2,2_2*%
%TO.N,Net-(SW2-B)*%
X118000000Y-82580000D03*
%TD*%
D15*
%TO.P,A2,1,GND_1*%
%TO.N,/GND*%
X140540000Y-95880000D03*
D16*
%TO.P,A2,2,VDD_2*%
%TO.N,unconnected-(A2-VDD-Pad2)*%
X138000000Y-95880000D03*
%TO.P,A2,3,1B_3*%
%TO.N,Net-(A2-1B)*%
X140540000Y-98420000D03*
%TO.P,A2,4,1A_4*%
%TO.N,Net-(A2-1A)*%
X138000000Y-98420000D03*
%TO.P,A2,5,2A_5*%
%TO.N,Net-(A2-2A)*%
X140540000Y-100960000D03*
%TO.P,A2,6,2B_6*%
%TO.N,Net-(A2-2B)*%
X138000000Y-100960000D03*
%TO.P,A2,7,GND_7*%
%TO.N,unconnected-(A2-GND-Pad7)*%
X140540000Y-103500000D03*
%TO.P,A2,8,VMOT_8*%
%TO.N,Net-(A2-VMOT)*%
X138000000Y-103500000D03*
%TO.P,A2,9,~{ENABLE}_9*%
%TO.N,/ENABLE*%
X140540000Y-106040000D03*
%TO.P,A2,10,MS1_10*%
%TO.N,unconnected-(A2-MS1-Pad10)*%
X138000000Y-106040000D03*
%TO.P,A2,11,MS2_11*%
%TO.N,unconnected-(A2-MS2-Pad11)*%
X140540000Y-108580000D03*
%TO.P,A2,12,MS3_12*%
%TO.N,unconnected-(A2-MS3-Pad12)*%
X138000000Y-108580000D03*
%TO.P,A2,13,~{RESET}_13*%
%TO.N,unconnected-(A2-~{RESET}-Pad13)*%
X140540000Y-111120000D03*
%TO.P,A2,14,~{SLEEP}_14*%
%TO.N,unconnected-(A2-~{SLEEP}-Pad14)*%
X138000000Y-111120000D03*
%TO.P,A2,15,STEP_15*%
%TO.N,/STEP*%
X140540000Y-113660000D03*
%TO.P,A2,16,DIR_16*%
%TO.N,/DIR*%
X138000000Y-113660000D03*
%TD*%
D15*
%TO.P,J5,1,D2_1*%
%TO.N,/STEP*%
X118000000Y-90920000D03*
D16*
%TO.P,J5,2,D5_2*%
%TO.N,/DIR*%
X118000000Y-93460000D03*
%TO.P,J5,3,D8_3*%
%TO.N,/ENABLE*%
X118000000Y-96000000D03*
%TO.P,J5,4,GND_4*%
%TO.N,/GND*%
X118000000Y-98540000D03*
%TO.P,J5,5,Pin_5_5*%
%TO.N,unconnected-(J5-Pin_5-Pad5)*%
X118000000Y-101080000D03*
%TO.P,J5,6,Pin_6_6*%
%TO.N,unconnected-(J5-Pin_6-Pad6)*%
X118000000Y-103620000D03*
%TO.P,J5,7,Pin_7_7*%
%TO.N,unconnected-(J5-Pin_7-Pad7)*%
X118000000Y-106160000D03*
%TO.P,J5,8,Pin_8_8*%
%TO.N,unconnected-(J5-Pin_8-Pad8)*%
X118000000Y-108700000D03*
%TO.P,J5,9,Pin_9_9*%
%TO.N,unconnected-(J5-Pin_9-Pad9)*%
X118000000Y-111240000D03*
%TO.P,J5,10,Pin_10_10*%
%TO.N,unconnected-(J5-Pin_10-Pad10)*%
X118000000Y-113780000D03*
%TD*%
D17*
%TO.P,J2,1*%
%TO.N,+12V*%
X130000000Y-65500000D03*
D18*
%TO.P,J2,2*%
%TO.N,/GND*%
X124000000Y-65500000D03*
D19*
%TO.P,J2,3*%
%TO.N,N/C*%
X127000000Y-70200000D03*
%TD*%
%TO.N,Net-(SW2-B)*%
D20*
X137040000Y-80540000D02*
X147920000Y-80540000D01*
X137000000Y-80500000D02*
X137040000Y-80540000D01*
X137000000Y-82500000D02*
X137000000Y-80500000D01*
X118000000Y-82580000D02*
X118080000Y-82500000D01*
X118080000Y-82500000D02*
X137000000Y-82500000D01*
%TO.N,+12V*%
X112500000Y-59000000D02*
X113000000Y-58500000D01*
X113000000Y-58500000D02*
X130000000Y-58500000D01*
X112500000Y-71500000D02*
X112500000Y-59000000D01*
X118000000Y-72500000D02*
X113500000Y-72500000D01*
X118000000Y-77500000D02*
X118000000Y-72500000D01*
X113500000Y-72500000D02*
X112500000Y-71500000D01*
X130000000Y-58500000D02*
X130000000Y-63050000D01*
%TO.N,Net-(A2-2A)*%
X151120000Y-100960000D02*
X140540000Y-100960000D01*
X154000000Y-103840000D02*
X151120000Y-100960000D01*
%TO.N,Net-(A2-1A)*%
X155600000Y-112400000D02*
X154000000Y-114000000D01*
X139260000Y-97160000D02*
X154662742Y-97160000D01*
X154662742Y-97160000D02*
X155600000Y-98097258D01*
X155600000Y-98097258D02*
X155600000Y-112400000D01*
X138000000Y-98420000D02*
X139260000Y-97160000D01*
%TO.N,Net-(A2-1B)*%
X136850000Y-100483654D02*
X136850000Y-101436346D01*
X136850000Y-101436346D02*
X137523654Y-102110000D01*
X138476346Y-99810000D02*
X137523654Y-99810000D01*
X147190000Y-102110000D02*
X154000000Y-108920000D01*
X139866346Y-98420000D02*
X138476346Y-99810000D01*
X137523654Y-99810000D02*
X136850000Y-100483654D01*
X137523654Y-102110000D02*
X147190000Y-102110000D01*
X140540000Y-98420000D02*
X139866346Y-98420000D01*
%TO.N,Net-(A2-2B)*%
X139150000Y-99810000D02*
X138000000Y-100960000D01*
X154000000Y-98760000D02*
X152950000Y-99810000D01*
X152950000Y-99810000D02*
X139150000Y-99810000D01*
%TO.N,/STEP*%
X140540000Y-119040000D02*
X140540000Y-113660000D01*
X140000000Y-120500000D02*
X141000000Y-119500000D01*
X141000000Y-119500000D02*
X140540000Y-119040000D01*
X110000000Y-91000000D02*
X110000000Y-118500000D01*
X110080000Y-90920000D02*
X110000000Y-91000000D01*
X112000000Y-120500000D02*
X140000000Y-120500000D01*
X118000000Y-90920000D02*
X110080000Y-90920000D01*
X110000000Y-118500000D02*
X112000000Y-120500000D01*
%TO.N,/DIR*%
X134500000Y-110160000D02*
X138000000Y-113660000D01*
X134500000Y-93500000D02*
X134500000Y-110160000D01*
X118000000Y-93460000D02*
X134460000Y-93460000D01*
%TO.N,/GND*%
X136970000Y-92310000D02*
X140540000Y-95880000D01*
X116850000Y-92983654D02*
X117523654Y-92310000D01*
X117523654Y-92310000D02*
X136970000Y-92310000D01*
X117523654Y-94610000D02*
X116850000Y-93936346D01*
X116850000Y-93936346D02*
X116850000Y-92983654D01*
X121930000Y-94610000D02*
X117523654Y-94610000D01*
X118000000Y-98540000D02*
X121930000Y-94610000D01*
%TO.N,/ENABLE*%
X139390000Y-107190000D02*
X140540000Y-106040000D01*
X139390000Y-114110000D02*
X139390000Y-107190000D01*
X113000000Y-117000000D02*
X136500000Y-117000000D01*
X113000000Y-96000000D02*
X113000000Y-117000000D01*
X118000000Y-96000000D02*
X113000000Y-96000000D01*
X136500000Y-117000000D02*
X139390000Y-114110000D01*
%TO.N,/DIR*%
X134460000Y-93460000D02*
X134500000Y-93500000D01*
%TO.N,Net-(A2-VMOT)*%
X161300000Y-94300000D02*
X161300000Y-94700000D01*
X141016346Y-104890000D02*
X139390000Y-104890000D01*
X146000000Y-109873654D02*
X141016346Y-104890000D01*
X147920000Y-83080000D02*
X150080000Y-83080000D01*
X139390000Y-104890000D02*
X138000000Y-103500000D01*
X161000000Y-118500000D02*
X146000000Y-118500000D01*
X161000000Y-95000000D02*
X161000000Y-118500000D01*
X146000000Y-118500000D02*
X146000000Y-109873654D01*
X161300000Y-94700000D02*
X161000000Y-95000000D01*
X150080000Y-83080000D02*
X161300000Y-94300000D01*
%TO.N,Net-(SW2-B)*%
X147460000Y-81000000D02*
X147920000Y-80540000D01*
%TO.N,/GND*%
X132050000Y-63450000D02*
X148240000Y-79640000D01*
X148820000Y-80167207D02*
X148820000Y-80912793D01*
X140540000Y-88660000D02*
X140540000Y-95880000D01*
X124000000Y-65500000D02*
X126050000Y-63450000D01*
X147732793Y-82000000D02*
X147200000Y-82000000D01*
X148820000Y-80912793D02*
X147732793Y-82000000D01*
X147200000Y-82000000D02*
X140540000Y-88660000D01*
X126050000Y-63450000D02*
X132050000Y-63450000D01*
X148240000Y-79640000D02*
X148292793Y-79640000D01*
X148292793Y-79640000D02*
X148820000Y-80167207D01*
%TO.N,Net-(A2-1B)*%
X160420000Y-102420000D02*
X160500000Y-102500000D01*
X160500000Y-94065686D02*
X160467157Y-94032843D01*
%TD*%
M02*
